<?xml version="1.0" encoding="utf-8"?>
<!-- Generator: Adobe Illustrator 25.4.1, SVG Export Plug-In . SVG Version: 6.00 Build 0)  -->
<svg version="1.1" id="Capa_1" xmlns="http://www.w3.org/2000/svg" xmlns:xlink="http://www.w3.org/1999/xlink" x="0px" y="0px"
	 viewBox="0 0 414 200" style="enable-background:new 0 0 414 200;" xml:space="preserve">
<style type="text/css">
	.st0{clip-path:url(#SVGID_00000061439194872662832040000013603829352027496064_);}
	.st1{fill:#88DAE5;}
	.st2{fill:#FFFFFF;}
	.st3{opacity:0.52;fill:#FFFFFF;enable-background:new    ;}
	.st4{opacity:0.52;fill:#FFFFFF;}
</style>
<g>
	<defs>
		<rect id="SVGID_1_" width="414" height="200"/>
	</defs>
	<clipPath id="SVGID_00000022540546324123492610000000063201255409545655_">
		<use xlink:href="#SVGID_1_"  style="overflow:visible;"/>
	</clipPath>
	<g style="clip-path:url(#SVGID_00000022540546324123492610000000063201255409545655_);">
		<rect class="st1" width="414" height="200"/>
		<path id="cloud" class="st2" d="M139.8,51.1c-1.9,0-3.8,0.2-5.8,0.6c-2.6-12.8-15-21.2-27.9-18.6c-1.8,0.3-3.6,1-5.3,1.7
			c-6.1-16.4-24.3-24.7-40.7-18.7c-16.2,6-24.6,23.9-18.8,40.2C26.8,56.9,15.5,69.2,16,83.7c0.6,14.1,12,25.3,26.2,25.4h97.7
			c16,0,29-13,29-29S155.9,51.1,139.8,51.1L139.8,51.1z"/>
		<path id="cloud-2" class="st3" d="M186.4,46.5c-1.7,0-3.4,0.1-5,0.5c-2.2-11.3-13.2-18.5-24.4-16.3c-1.6,0.3-3.1,0.8-4.7,1.5
			C147,17.9,131,10.6,116.7,15.8c-14.2,5.3-21.6,21-16.5,35.3c-12.7,0.3-22.8,10.9-22.5,23.7c0.3,12.5,10.7,22.6,23.2,22.5h85.6
			c14.1,0,25.4-11.4,25.4-25.4C211.8,57.8,200.5,46.5,186.4,46.5L186.4,46.5L186.4,46.5z"/>
		<path id="cloud-3" class="st2" d="M279.1,56.5c1.7,0,3.5,0.2,5.2,0.5c2.3-11.6,13.6-19.1,25.2-16.8c1.7,0.3,3.3,0.9,4.8,1.6
			c5.4-14.8,21.9-22.5,36.7-17c14.8,5.4,22.4,21.8,17.1,36.6c13.2,0.4,23.5,11.4,23.1,24.6c-0.4,12.9-10.9,23.1-23.8,23.1h-88.3
			c-14.5,0.1-26.3-11.6-26.4-26.1s11.6-26.3,26.1-26.4C278.9,56.5,279,56.5,279.1,56.5L279.1,56.5z"/>
		<path id="cloud-4" class="st4" d="M151.8,169.9c2.2,0,4.5,0.2,6.7,0.7c3-14.9,17.5-24.6,32.5-21.6c2.1,0.4,4.2,1.1,6.2,2
			c6.9-19.1,28-29,47.1-22c19.1,6.9,29,28,22,47.1l0,0c16.9,0.5,30.2,14.7,29.7,31.6c-0.5,16.5-14.1,29.7-30.6,29.7H151.8
			c-18.6,0-33.8-15.1-33.8-33.8C118,185,133.1,169.9,151.8,169.9z"/>
	</g>
</g>
</svg>
