<?xml version="1.0" encoding="utf-8"?>
<!-- Generator: Adobe Illustrator 25.4.1, SVG Export Plug-In . SVG Version: 6.00 Build 0)  -->
<svg version="1.1" id="Capa_1" xmlns="http://www.w3.org/2000/svg" xmlns:xlink="http://www.w3.org/1999/xlink" x="0px" y="0px"
	 viewBox="0 0 414 200" style="enable-background:new 0 0 414 200;" xml:space="preserve">
<style type="text/css">
	.st0{clip-path:url(#SVGID_00000054975300613656996270000012812647532368791969_);}
	.st1{fill:#243046;}
	.st2{opacity:6.000000e-02;fill:#FFFFFF;enable-background:new    ;}
	.st3{opacity:4.000000e-02;fill:#FFFFFF;enable-background:new    ;}
	.st4{fill:#FFEB98;}
	.st5{fill:#EFCF6E;}
	.st6{fill:#333E53;}
	.st7{opacity:0.92;}
	.st8{fill:#FFF6D2;}
	.st9{opacity:0.51;}
	.st10{opacity:0.26;}
	.st11{opacity:0.45;fill:#FFF6D2;enable-background:new    ;}
	.st12{opacity:0.48;}
	.st13{opacity:0.46;}
</style>
<g>
	<defs>
		<rect id="SVGID_1_" width="414" height="200"/>
	</defs>
	<clipPath id="SVGID_00000126317381924018135010000018307437772819530900_">
		<use xlink:href="#SVGID_1_"  style="overflow:visible;"/>
	</clipPath>
	<g style="clip-path:url(#SVGID_00000126317381924018135010000018307437772819530900_);">
		<rect class="st1" width="414" height="200"/>
		<path id="cloud" class="st2" d="M163.2,180.7c-2.8,0-5.5,0.3-8.3,0.8c-3.7-18.4-21.6-30.4-40.1-26.7c-2.6,0.5-5.2,1.4-7.6,2.5
			c-8.7-23.5-34.9-35.5-58.4-26.8c-23.3,8.6-35.3,34.4-27,57.8c-20.9,0.8-37.2,18.4-36.4,39.3c0.8,20.2,17.3,36.3,37.6,36.5h140.3
			c23,0,41.7-18.7,41.7-41.7S186.2,180.7,163.2,180.7L163.2,180.7z"/>
		<path id="cloud-2" class="st3" d="M222.7,113.2c1.9,0,3.8,0.2,5.7,0.6c2.6-12.7,14.9-21,27.7-18.4c1.8,0.4,3.6,0.9,5.2,1.7
			c5.9-16.3,23.9-24.7,40.2-18.8c16.3,5.9,24.7,23.9,18.8,40.2c14.4,0.5,25.8,12.5,25.3,26.9c-0.4,14.1-12,25.3-26.1,25.3h-96.8
			c-15.9,0.1-28.8-12.7-28.9-28.6c-0.1-15.9,12.7-28.8,28.6-28.9C222.5,113.2,222.6,113.2,222.7,113.2L222.7,113.2z"/>
		<g id="moon" transform="translate(277 20.965)">
			<path id="Path_1" class="st4" d="M18.3,72.6c27,0,48.8-21.8,48.8-48.8c0-11.5-4-22.6-11.4-31.4c28.7,9.2,44.6,40,35.3,68.8
				s-40,44.6-68.8,35.3C5.5,91.1-7.7,77.9-13.1,61.1C-4.3,68.5,6.8,72.6,18.3,72.6z"/>
			<path id="Path_2" class="st5" d="M72.8,1.5c18.7,23.7,14.6,58-9.1,76.7c-19.8,15.6-47.7,15.6-67.6,0c18.6,23.7,53,27.9,76.7,9.2
				s27.9-53,9.2-76.7C79.3,7.3,76.2,4.2,72.8,1.5z"/>
		</g>
		<path id="cloud-3" class="st6" d="M308.3,115c2.3,0,4.5,0.2,6.8,0.7c3-15.1,17.7-24.9,32.8-21.9c2.2,0.4,4.2,1.1,6.2,2
			c7-19.3,28.4-29.3,47.7-22.3c19.3,7,29.3,28.4,22.3,47.7c17.1,0.5,30.6,14.9,30,32c-0.5,16.7-14.2,30-30.9,30H308.3
			c-18.9,0.1-34.2-15.1-34.3-34s15.1-34.2,34-34.3C308.1,115,308.2,115,308.3,115z"/>
		<path id="cloud-4" class="st2" d="M72.2,29.3c-1.9,0-3.9,0.2-5.8,0.6C63.9,17,51.4,8.7,38.5,11.3c-1.8,0.4-3.6,0.9-5.3,1.7
			C27.2-3.5,9-12-7.4-6s-25,24.2-19,40.6C-41,35.1-52.4,47.3-52,61.9c0.5,14.2,12.1,25.5,26.4,25.6h97.8c16.1,0,29.1-13,29.1-29.1
			S88.3,29.3,72.2,29.3L72.2,29.3z"/>
		<g id="Group_1" transform="translate(-55 31.992)" class="st7">
			<path id="Path_4" class="st8" d="M234.1,82.8l0.5,0.9l1,0.1l-0.7,0.7l0.2,1l-0.9-0.5l-0.9,0.5l0.2-1l-0.7-0.7l1-0.1L234.1,82.8z"
				/>
		</g>
		<g id="Group_2" transform="translate(16 -0.008)" class="st9">
			<path id="Path_4-2" class="st8" d="M234.1,82.8l0.5,0.9l1,0.1l-0.7,0.7l0.2,1l-0.9-0.5l-0.9,0.5l0.2-1l-0.7-0.7l1-0.1L234.1,82.8
				z"/>
		</g>
		<g id="Group_4" transform="translate(-190 52.992)" class="st10">
			<path id="Path_4-3" class="st8" d="M234.1,82.8l0.5,0.9l1,0.1l-0.7,0.7l0.2,1l-0.9-0.5l-0.9,0.5l0.2-1l-0.7-0.7l1-0.1L234.1,82.8
				z"/>
		</g>
		<g id="Group_6" transform="translate(-190 -67.008)" class="st7">
			<path id="Path_4-4" class="st8" d="M234.1,82.8l0.5,0.9l1,0.1l-0.7,0.7l0.2,1l-0.9-0.5l-0.9,0.5l0.2-1l-0.7-0.7l1-0.1L234.1,82.8
				z"/>
		</g>
		<g id="Group_7" transform="translate(-3 -58.008)" class="st7">
			<path id="Path_4-5" class="st11" d="M234.1,82.8l0.5,0.9l1,0.1l-0.7,0.7l0.2,1l-0.9-0.5l-0.9,0.5l0.2-1l-0.7-0.7l1-0.1
				L234.1,82.8z"/>
		</g>
		<g id="Group_9" transform="translate(-70 102.992)" class="st12">
			<path id="Path_4-6" class="st8" d="M234.1,82.8l0.5,0.9l1,0.1l-0.7,0.7l0.2,1l-0.9-0.5l-0.9,0.5l0.2-1l-0.7-0.7l1-0.1L234.1,82.8
				z"/>
		</g>
		<g id="Group_10" transform="translate(30 162.992)" class="st7">
			<path id="Path_4-7" class="st8" d="M89.9-130l0.5,0.9l1,0.1l-0.7,0.7l0.2,1l-0.9-0.5l-0.9,0.5l0.2-1l-0.7-0.7l1-0.1L89.9-130z"/>
		</g>
		<g id="Group_11" transform="translate(70 112.992)" class="st13">
			<path id="Path_4-8" class="st8" d="M234.1,82.8l0.5,0.9l1,0.1l-0.7,0.7l0.2,1l-0.9-0.5l-0.9,0.5l0.2-1l-0.7-0.7l1-0.1L234.1,82.8
				z"/>
		</g>
		<g id="Group_13" transform="translate(150 232.992)" class="st7">
			<path id="Path_4-9" class="st8" d="M139.8-190l0.5,0.9l1,0.1l-0.7,0.7l0.2,1l-0.9-0.5l-0.9,0.5l0.2-1l-0.7-0.7l1-0.1L139.8-190z"
				/>
		</g>
		<g id="Group_14" transform="translate(30 292.992)" class="st7">
			<path id="Path_4-10" class="st8" d="M364.4-268.2l0.5,0.9l1,0.1l-0.7,0.7l0.2,1l-0.9-0.5l-0.9,0.5l0.2-1l-0.7-0.7l1-0.1
				L364.4-268.2z"/>
		</g>
		<g id="Group_15" transform="translate(-150 272.992)" class="st7">
			<path id="Path_4-11" class="st8" d="M252.8-161l0.5,0.9l1,0.1l-0.7,0.7l0.2,1l-0.9-0.5l-0.9,0.5l0.2-1l-0.7-0.7l1-0.1L252.8-161z
				"/>
		</g>
	</g>
</g>
</svg>
